# xmcd
#
# Track frame offsets:
#	150
#	21772
#	40547
#	59432
#	82915
#	92282
#	111460
#	124352
#	144510
#	168125
#	189047
#	199677
#	216162
#	246362
#
# Disc length: 3618 seconds
# Revision: 2
# Processed by: cddbd v1.5.2PL0 Copyright (c) Steve Scherf et al.
# Submitted via: dBpowerAMP V12.0
#
DISCID=b50e200e
DTITLE=James Harman - Black and White
DYEAR=1995
DGENRE=Blues
TTITLE0=Too Right to Run
TTITLE1=Cut to The Chase
TTITLE2=Hollywood Girls
TTITLE3=The Four Questions, No. 1
TTITLE4=Torqueflite 727
TTITLE5=Lock Doctor
TTITLE6=Everybody's Rockin' (at The Zoo Bar)
TTITLE7=Black and White
TTITLE8=Cold Tile Floor
TTITLE9=Sometimes... (The Rules Just Don't Apply)
TTITLE10=The Twins
TTITLE11=Leavin' For Memphis (Crickets And Frogs)
TTITLE12=Second Voyage of Noah's Ark (Crickets And Frogs)
TTITLE13=The Four Questions, No. 2
EXTD=
EXTT0=
EXTT1=
EXTT2=
EXTT3=
EXTT4=
EXTT5=
EXTT6=
EXTT7=
EXTT8=
EXTT9=
EXTT10=
EXTT11=
EXTT12=
EXTT13=
PLAYORDER=
